<mxfile host="65bd71144e">
    <diagram id="4xPm8231la-uufufDt_P" name="Page-1">
        <mxGraphModel dx="832" dy="475" grid="1" gridSize="10" guides="1" tooltips="1" connect="1" arrows="1" fold="1" page="1" pageScale="1" pageWidth="850" pageHeight="1100" math="0" shadow="0">
            <root>
                <mxCell id="0"/>
                <mxCell id="1" parent="0"/>
                <mxCell id="2" value="Start" style="ellipse;whiteSpace=wrap;html=1;fillColor=#f0a30a;fontColor=#000000;strokeColor=#BD7000;" parent="1" vertex="1">
                    <mxGeometry x="190" y="20" width="110" height="70" as="geometry"/>
                </mxCell>
                <mxCell id="6" value="" style="verticalLabelPosition=bottom;verticalAlign=top;html=1;shape=hexagon;perimeter=hexagonPerimeter2;arcSize=6;size=0.27;fillColor=#f0a30a;fontColor=#000000;strokeColor=#BD7000;" parent="1" vertex="1">
                    <mxGeometry x="195" y="130" width="100" height="60" as="geometry"/>
                </mxCell>
                <mxCell id="7" value="String : Username, Password" style="text;strokeColor=none;align=center;fillColor=none;html=1;verticalAlign=middle;whiteSpace=wrap;rounded=0;fontColor=#000000;" parent="1" vertex="1">
                    <mxGeometry x="215" y="145" width="60" height="30" as="geometry"/>
                </mxCell>
                <mxCell id="8" value="Username, Password" style="shape=parallelogram;html=1;strokeWidth=2;perimeter=parallelogramPerimeter;whiteSpace=wrap;rounded=1;arcSize=12;size=0.23;fontColor=#000000;fillColor=#f0a30a;strokeColor=#BD7000;" parent="1" vertex="1">
                    <mxGeometry x="185" y="230" width="110" height="60" as="geometry"/>
                </mxCell>
                <mxCell id="11" value="Usename = True&lt;br&gt;Password = True" style="strokeWidth=2;html=1;shape=mxgraph.flowchart.decision;whiteSpace=wrap;fontColor=#000000;fillColor=#f0a30a;strokeColor=#BD7000;" parent="1" vertex="1">
                    <mxGeometry x="180" y="330" width="130" height="100" as="geometry"/>
                </mxCell>
                <mxCell id="14" value="Print &quot; Anda berhasil masuk ke sistem&quot;" style="rounded=0;whiteSpace=wrap;html=1;fontColor=#000000;fillColor=#f0a30a;strokeColor=#BD7000;" parent="1" vertex="1">
                    <mxGeometry x="80" y="480" width="120" height="60" as="geometry"/>
                </mxCell>
                <mxCell id="15" value="" style="endArrow=classic;html=1;fontColor=#000000;exitX=1;exitY=0.5;exitDx=0;exitDy=0;exitPerimeter=0;startArrow=none;" parent="1" edge="1" source="29">
                    <mxGeometry width="50" height="50" relative="1" as="geometry">
                        <mxPoint x="400" y="379.5" as="sourcePoint"/>
                        <mxPoint x="400" y="460" as="targetPoint"/>
                        <Array as="points">
                            <mxPoint x="400" y="380"/>
                        </Array>
                    </mxGeometry>
                </mxCell>
                <mxCell id="17" value="" style="endArrow=classic;html=1;fontColor=#000000;" parent="1" edge="1">
                    <mxGeometry width="50" height="50" relative="1" as="geometry">
                        <mxPoint x="180" y="380" as="sourcePoint"/>
                        <mxPoint x="130" y="470" as="targetPoint"/>
                        <Array as="points">
                            <mxPoint x="130" y="380"/>
                        </Array>
                    </mxGeometry>
                </mxCell>
                <mxCell id="18" value="" style="endArrow=classic;html=1;fontColor=#000000;exitX=0.45;exitY=1.017;exitDx=0;exitDy=0;exitPerimeter=0;" parent="1" edge="1" target="38" source="14">
                    <mxGeometry width="50" height="50" relative="1" as="geometry">
                        <mxPoint x="135" y="550" as="sourcePoint"/>
                        <mxPoint x="230" y="620" as="targetPoint"/>
                        <Array as="points">
                            <mxPoint x="135" y="620"/>
                        </Array>
                    </mxGeometry>
                </mxCell>
                <mxCell id="19" value="Print &quot;User dan Password salah&quot;" style="rounded=0;whiteSpace=wrap;html=1;fontColor=#000000;fillColor=#f0a30a;strokeColor=#BD7000;" parent="1" vertex="1">
                    <mxGeometry x="340" y="470" width="120" height="60" as="geometry"/>
                </mxCell>
                <mxCell id="26" value="End" style="ellipse;whiteSpace=wrap;html=1;fontColor=#000000;fillColor=#f0a30a;strokeColor=#BD7000;" parent="1" vertex="1">
                    <mxGeometry x="200" y="700" width="120" height="60" as="geometry"/>
                </mxCell>
                <mxCell id="27" value="&lt;span style=&quot;font-size: 15px; background-color: rgb(255, 255, 255);&quot;&gt;Ya&lt;/span&gt;" style="text;strokeColor=none;align=center;fillColor=none;html=1;verticalAlign=middle;whiteSpace=wrap;rounded=0;fontColor=#000000;strokeWidth=4;" parent="1" vertex="1">
                    <mxGeometry x="125" y="365" width="60" height="30" as="geometry"/>
                </mxCell>
                <mxCell id="33" value="" style="edgeStyle=none;orthogonalLoop=1;jettySize=auto;html=1;fontSize=15;fontColor=#000000;" parent="1" edge="1">
                    <mxGeometry width="100" relative="1" as="geometry">
                        <mxPoint x="240" y="100" as="sourcePoint"/>
                        <mxPoint x="240" y="120" as="targetPoint"/>
                        <Array as="points"/>
                    </mxGeometry>
                </mxCell>
                <mxCell id="35" value="" style="endArrow=classic;html=1;fontSize=15;fontColor=#000000;" parent="1" edge="1">
                    <mxGeometry width="50" height="50" relative="1" as="geometry">
                        <mxPoint x="240" y="300" as="sourcePoint"/>
                        <mxPoint x="240" y="320" as="targetPoint"/>
                    </mxGeometry>
                </mxCell>
                <mxCell id="37" value="" style="endArrow=classic;html=1;fontSize=15;fontColor=#000000;exitX=0.5;exitY=1;exitDx=0;exitDy=0;" parent="1" edge="1" source="19">
                    <mxGeometry width="50" height="50" relative="1" as="geometry">
                        <mxPoint x="400" y="540" as="sourcePoint"/>
                        <mxPoint x="290" y="620" as="targetPoint"/>
                        <Array as="points">
                            <mxPoint x="400" y="620"/>
                        </Array>
                    </mxGeometry>
                </mxCell>
                <mxCell id="38" value="" style="ellipse;whiteSpace=wrap;html=1;aspect=fixed;fillColor=#f0a30a;fontColor=#000000;strokeColor=#BD7000;" vertex="1" parent="1">
                    <mxGeometry x="230" y="590" width="60" height="60" as="geometry"/>
                </mxCell>
                <mxCell id="39" value="" style="endArrow=classic;html=1;exitX=0.5;exitY=1;exitDx=0;exitDy=0;" edge="1" parent="1" source="38">
                    <mxGeometry width="50" height="50" relative="1" as="geometry">
                        <mxPoint x="260" y="660" as="sourcePoint"/>
                        <mxPoint x="260" y="690" as="targetPoint"/>
                    </mxGeometry>
                </mxCell>
                <mxCell id="40" value="" style="endArrow=none;html=1;fontColor=#000000;exitX=1;exitY=0.5;exitDx=0;exitDy=0;exitPerimeter=0;" edge="1" parent="1" source="11" target="29">
                    <mxGeometry width="50" height="50" relative="1" as="geometry">
                        <mxPoint x="310" y="380" as="sourcePoint"/>
                        <mxPoint x="400" y="460" as="targetPoint"/>
                        <Array as="points"/>
                    </mxGeometry>
                </mxCell>
                <mxCell id="29" value="&lt;span style=&quot;color: rgb(0, 0, 0); font-family: Helvetica; font-size: 15px; font-style: normal; font-variant-ligatures: normal; font-variant-caps: normal; font-weight: 400; letter-spacing: normal; orphans: 2; text-align: center; text-indent: 0px; text-transform: none; widows: 2; word-spacing: 0px; -webkit-text-stroke-width: 0px; background-color: rgb(255, 255, 255); text-decoration-thickness: initial; text-decoration-style: initial; text-decoration-color: initial; float: none; display: inline !important;&quot;&gt;Tidak&lt;/span&gt;" style="text;whiteSpace=wrap;html=1;fontSize=15;fontColor=#000000;" parent="1" vertex="1">
                    <mxGeometry x="340" y="360" width="30" height="40" as="geometry"/>
                </mxCell>
                <mxCell id="42" value="" style="endArrow=classic;html=1;" edge="1" parent="1">
                    <mxGeometry width="50" height="50" relative="1" as="geometry">
                        <mxPoint x="240" y="195" as="sourcePoint"/>
                        <mxPoint x="240" y="220" as="targetPoint"/>
                    </mxGeometry>
                </mxCell>
            </root>
        </mxGraphModel>
    </diagram>
</mxfile>